<svg width="532" height="146" viewBox="0 0 532 146"  xmlns="http://www.w3.org/2000/svg" xmlns:xlink="http://www.w3.org/1999/xlink">
  <g fill="none" fill-rule="evenodd">
    <path fill="#FEFEFE" d="M100.1 0v106.6c0 20.4-25.4 34.7-50 38.8C25.4 141.3 0 127 0 106.6V0h100.1z"/>
    <path fill="#BA0C2F" d="M18.4 128.4a81.7 81.7 0 0031.7 12.5 81.7 81.7 0 0031.6-12.5c6.4-4.5 13.9-11.9 13.9-21.8v-2.4h-12v8.6c0 .2-.1.4-.4.4h-7.8a.4.4 0 01-.4-.4v-8.6H54.2v8.6c0 .2-.2.4-.4.4H46a.4.4 0 01-.5-.4v-8.6H24.8v8.6c0 .2-.2.4-.4.4h-7.8a.4.4 0 01-.5-.4v-8.6H4.5v2.4c0 10 7.6 17.3 13.9 21.8"/>
    <path fill="#000" d="M95.6 4.5v94.8h-8.7l-3.2 3.1V91.6c0-.2-.1-.4-.3-.4A2.6 2.6 0 0182 89V46.9a2 2 0 011.7-1.9c.2 0 .3-.2.3-.3v-4.5c0-.2-.1-.4-.3-.4h-3.2a31 31 0 00-61-.6l-.2.5h-3.1c-.2 0-.4.2-.5.4v4.5c0 .2.2.4.4.4a2 2 0 011.7 1.8v42.1c0 1-.6 1.8-1.4 2.3l-.3.3v7.8H4.5V4.5h91.1zM45.6 45a2 2 0 011.6 1.8v42.1c0 1-.6 1.8-1.4 2.3-.1 0-.2.1-.2.3v7.8H28l-3.3 3V91.7c0-.2 0-.4-.2-.4a2.6 2.6 0 01-1.4-2.1V46.9a2 2 0 011.5-1.9h20.8zm29.3 0a2 2 0 011.7 1.8v42.1c0 1-.6 1.8-1.4 2.3-.1 0-.2.1-.2.3v7.8H57.5l-3.3 3V91.7c0-.2 0-.4-.2-.4a2.6 2.6 0 01-1.4-2.1V46.9a2 2 0 011.5-1.9h20.8zM50 18.5a26.5 26.5 0 0125.9 20.8v.4H24a26.6 26.6 0 0126-21.2z"/>
    <path fill="#FEFEFE" d="M54.6 120c2.5 0 3.6 1.2 3.6 2.3 0 .9-.6 1.5-1.7 2l-.2.1h-.1v.1c1.6.6 2.3 1.5 2.3 2.7 0 1.7-1.6 3-3.9 3-2.6 0-4-.9-4-2.5 0-.9.5-1.6 1.6-2l.3-.2c-1.1-.7-1.7-1.5-1.7-2.5 0-1.8 1.5-3 3.8-3zm14 .3v2h-5.4l-.2 2.3h.1c.8-.4 1.4-.5 2.3-.5 1.8 0 3.7.8 3.7 2.9 0 1.5-1.2 3.2-3.8 3.2-2.4 0-3.9-.8-3.9-2.2 0-.8.6-1.4 1.4-1.4.9 0 1.3.7 1.3 1.3 0 .5-.3 1-.7 1.1v.1h-.1v.1c.2.2 1 .3 1.4.3 1.3 0 2-.8 2-2.4 0-1.4-.7-2.2-2-2.2a4 4 0 00-2 .5h-.2l-.4-.3.2-4.8h6.4zm-20.4 0v1l-2.7 4.8-2 4h-2v-.5l5.3-7.3h-3.5c-1.4 0-1.7.3-2 1.4v.1h-.6l.1-3.5h7.4zm-12 0v8.3c0 .5.4.7 1.4.7h.4v.7h-6.2v-.6h.4c.9-.1 1.3-.3 1.4-.7v-6.3c0-.4-.1-.7-.3-1-.2-.1-.6-.3-1.2-.3h-.3v-.6l4.4-.3zm17 5.5c-.4.6-.6 1.1-.6 1.7 0 1 .7 2 2 2 1 0 1.7-.5 1.7-1.5 0-.8-.6-1.4-2.5-2h-.3l-.2-.2zm1.2-5.1c-.7 0-1.5.4-1.5 1.3 0 1 1 1.6 2.2 2l.4.2c.5-.6.8-1.1.8-1.9 0-1-.8-1.6-2-1.6z"/>
    <path fill="#231F20" d="M95.7 130.1h.9l1 1.6.9-1.6h.9v3.7h-.8v-2.5l-1 1.6h-.1l-1-1.6v2.5h-.8V130zm-2.8.7h-1v-.7h3v.7h-1.1v3h-.9v-3z"/>
    <path fill="#000" d="M425.8 23.1c1.6 0 2.5 1 2.5 2.2 0 1-.7 2-1.9 2-1 0-1.8-.8-1.8-2.1-.8.3-1.5 1-2 2 2 1 3.1 2.7 3.1 5 0 4-3.3 6.4-7.8 6.4l-2.3-.2c-1.5.5-2.3 1-2.3 1.8s.8 1.4 4.1 1.5h2.2c5.4 0 8 1.5 8 5s-3.8 6.7-10.4 6.7c-5 0-8.4-2-8.4-4.4 0-1.8 1.6-3.3 4.8-3.8V45c-2.5-.7-3.4-1.8-3.4-3.4 0-1.5 1.2-2.7 3.5-3.8a5.7 5.7 0 01-3.8-5.5c0-3.9 3.4-6.3 8-6.3 1.3 0 2.5.2 3.6.6l.2-.4c1-1.7 2.1-3 4.1-3zM418.2 46h-3.4c-1.7.4-2.7 1.3-2.7 2.7 0 1.8 2 3.2 6.2 3.2 3.5 0 5.8-1.4 5.8-3.5 0-1.5-1-2.4-6-2.4zm-274-28.3c8 0 13.3 5.3 13.3 14 0 8.6-5.6 14-13.3 14-7.9 0-13.2-5.3-13.2-14 0-8.5 5.5-14 13.2-14zm99.7 8.2c5.7 0 8.4 4.5 8 9.6h-12.2v.2c0 4.4 2 7.4 5.7 7.4 2.2 0 4-1.3 5.6-3.3l1 .8c-1.7 2.8-4 5-8.1 5-6 0-9.4-3.8-9.4-9.7 0-6 3.8-10 9.4-10zm54 0c5.6 0 8.3 4.5 8 9.6h-12.3v.2c0 4.4 2 7.4 5.8 7.4 2.2 0 4-1.3 5.6-3.3l1 .8c-1.7 2.8-4 5-8.1 5-6 0-9.4-3.8-9.4-9.7 0-6 3.7-10 9.4-10zm20.2.2c4.8 0 7 2.2 7 6.5V41c0 2 .5 2.4 3 2l.3 1.1a8.6 8.6 0 01-4.2 1.3c-2.5 0-3-1-3.5-2.9h-.2a8.6 8.6 0 01-6.1 3c-3.8 0-5.4-2.4-5.4-4.7a5 5 0 012.6-4.4c3-1.6 7.7-1.8 8.8-2.3V32c0-3.5-1-4.5-3.4-4.5-1 0-1.6.2-2.2.6.3.6.6 1.3.6 2 0 1.5-1.1 2.7-2.8 2.7-1.8 0-2.7-1.1-2.7-2.6 0-2.5 3.2-4.3 8.2-4.3zm-142.8 0c3.2 0 4.8 2 4.8 5.9V42c0 1 .5 1.4 2.8 1.4V45h-10v-1.5c1.8 0 2.3-.4 2.3-1.4v-9c0-2.8-1-4-3.1-4-1.5 0-2.8.7-4 1.4v11.6c0 1 .6 1.4 2.3 1.4V45h-10v-1.5h.5c2 0 2.4-.5 2.4-1.4V30c0-1.2-.5-2-2.8-2v-1.5l7.6-.3v3c2-1.6 4.5-3.1 7.2-3.1zm224.4 0c3.2 0 4.8 2 4.8 5.9V42c0 1 .5 1.4 2.9 1.4V45h-10v-1.5c1.7 0 2.3-.4 2.3-1.4v-9c0-2.8-1-4-3.2-4-1.5 0-2.8.7-4 1.4v11.6c0 1 .6 1.4 2.4 1.4V45h-10v-1.5h.4c2 0 2.4-.5 2.4-1.4V30c0-1.2-.5-2-2.8-2v-1.5l7.6-.3v3c2-1.6 4.6-3.1 7.2-3.1zm-20 .1v16c0 1 .6 1.4 3 1.4V45H372v-1.5h.5c2 0 2.4-.5 2.4-1.4V30c0-1.2-.5-2-2.9-2v-1.5l7.8-.3zm-187.4-9.5v25.5c0 1 .5 1.4 2.8 1.4V45h-10.5v-1.5h.4c2 0 2.4-.5 2.4-1.4V20.4c0-1.2-.6-2-3-2V17l7.9-.3zm12.7 9.5v16c0 1 .5 1.4 2.8 1.4V45h-10.6v-1.5h.5c1.9 0 2.4-.5 2.4-1.4V30c0-1.2-.5-2-3-2v-1.5l7.9-.3zm19.9-.1c3.2 0 4.8 2 4.8 5.9V42c0 1 .5 1.4 2.8 1.4V45h-10v-1.5c1.8 0 2.3-.4 2.3-1.4v-9c0-2.8-1-4-3.1-4-1.5 0-2.8.7-4 1.4v11.6c0 1 .6 1.4 2.3 1.4V45h-10v-1.5h.5c2 0 2.4-.5 2.4-1.4V30c0-1.2-.5-2-2.8-2v-1.5l7.6-.3v3c2-1.6 4.5-3.1 7.2-3.1zm51.3-7.8v1.6h-.5c-2.8.1-3.3.5-3.3 1.7v21.7h2.8c5.6 0 7.2-2.6 9-8.2h1.7l-.2 10h-22.8v-1.6h.6c2.7-.2 3.2-.5 3.2-1.7V21.5c0-1.3-.6-1.6-3.8-1.7v-1.6h13.3zm66.4 7.8c2.3 0 3.5 1.5 3.5 3.2 0 1.8-1.1 3-2.7 3s-2.7-1-2.7-2.4V29c-1.4 0-2.7 1-3.5 2V42c0 1 .7 1.4 3.6 1.4V45h-11.3v-1.5h.4c2 0 2.4-.5 2.4-1.4V30c0-1.2-.5-2-2.8-2v-1.5l7.6-.3v3.3c1.4-1.8 3.3-3.4 5.5-3.4zm20 0c3.1 0 4.7 2 4.7 5.9V42c0 1 .5 1.4 2.9 1.4V45h-10v-1.5c1.7 0 2.3-.4 2.3-1.4v-9c0-2.8-1-4-3.2-4-1.5 0-2.8.7-4 1.4v11.6c0 1 .7 1.4 2.4 1.4V45h-10v-1.5h.4c2 0 2.4-.5 2.4-1.4V30c0-1.2-.5-2-2.8-2v-1.5l7.6-.3v3c2-1.6 4.6-3.1 7.2-3.1zM144 19.3c-4.6 0-6.9 3.6-6.9 12.3 0 8.8 2.7 12.3 7.3 12.3s7-3.5 7-12.3c0-8.7-2.7-12.3-7.4-12.3zm176.4 21.4v-5.2h-.6c-4.2.8-5.5 1.8-5.5 4.1 0 1.8 1 3 2.8 3 1.4 0 2.6-.9 3.3-1.9zm97.3-13.2c-2 0-3 1.3-3 4.8 0 3.4 1.2 4.8 3.3 4.8 2 0 3-1.4 3-4.8 0-3-1.2-4.8-3.3-4.8zm-174 0c-2.3 0-3.7 2-4 6.4h7.3c.4-3.6-.8-6.5-3.4-6.5zm53.9 0c-2.3 0-3.7 2-4 6.4h7.3c.4-3.6-.7-6.5-3.3-6.5zm-95.1-11.1c1.8 0 3 1.2 3 3s-1.2 3-3 3-3-1.1-3-3c0-1.8 1.2-3 3-3zm174.8 0c1.8 0 3 1.2 3 3s-1.2 3-3 3-3-1.1-3-3c0-1.8 1.2-3 3-3z"/>
    <path fill="#BA0C2F" d="M470 81.2l-1.7-2.7L467 76c1.3-.6 3.4-2 3.6-4.7V71v-.4a5 5 0 00-2.1-4.2c-1.3-.9-2.9-1.2-5.8-1.2h-8c.6.5 1.7 1.6 1.7 4.6v11c0 3.8-1.9 4.6-1.9 4.6h8.2s-1.9-.8-1.9-4.7V77h.6c1 0 1.5.3 2 1.2l.3.5.6 1.1L466 83l.2.3c1.2 1.7 2.3 2.4 5.7 2.4h1.3l.2-.1s-1.3-1-3.5-4.4zm-341-16h7.8-.1c-.6.5-1.6 1.6-1.6 4.6v7.6c0 6 4.2 6.3 4.8 6.3.3 0 5.2.7 5.2-7.3v-6.6c0-3.2-1.3-4.3-1.7-4.6h5.8c-.6.5-1.7 1.6-1.7 4.6v6.5s.9 9.2-7.5 9.6h-.5c-1.3 0-8.8-.2-8.8-7.1v-9c0-3.2-1.3-4.3-1.8-4.6zm212.4-.5c6.2 0 10.9 4.5 10.9 10.4 0 6.2-4.8 10.8-11.3 10.8-6.3 0-11-4.5-11-10.6 0-5.2 3.8-10.4 11-10.6h.4zm98.6 0c6.2 0 10.8 4.5 10.8 10.4 0 6.2-4.7 10.8-11.2 10.8-6.3 0-11-4.5-11-10.6 0-5.2 3.8-10.4 11-10.6h.4zm-43.8 0c2.7 0 6.6 1.1 6.6 1.1v4.8-.2a7.3 7.3 0 00-6.4-3.7c-3 0-5.8 1.8-6.9 5a11 11 0 00-.5 3.3c0 6.4 3.8 9 7.6 9a4 4 0 001.7-.4c.5-.3.7-.8.7-1.6v-4.2c0-2.7-1.9-3.5-1.9-3.5h7.8s-1.4.4-1.4 2.7v7.8l-1.7.3c-1.7.4-3.7.8-5.5.8-7.6 0-12.4-4-12.4-10.4 0-7.4 6.4-10.8 12.3-10.8zm91.1 0c2.7 0 6.6 1.1 6.6 1.1v4.8a7.3 7.3 0 00-6.4-3.9c-3.1 0-5.9 1.8-7 5a11 11 0 00-.5 3.3c0 6.4 3.8 9 7.6 9a4 4 0 001.8-.4c.4-.3.7-.8.7-1.6v-4.2c0-2.7-2-3.5-2-3.5h7.8s-1.3.4-1.3 2.7v7.8l-1.7.3c-1.8.4-3.7.8-5.6.8-7.5 0-12.4-4-12.4-10.4 0-7.4 6.5-10.8 12.4-10.8zm-230.1 0c2 0 4.3.6 5 .9h.2v4.3a5.8 5.8 0 00-5.5-3.5c-2 0-3 1.3-3 2.7 0 1.6 1 2.4 3.7 3.7l.3.2c3.4 1.5 6.1 3.5 6.1 6.6 0 4-3.4 6.3-7.8 6.3a12.3 12.3 0 01-5.6-1.5l-.3-.2-.1-5.2c.7 2 3.1 5 6.5 5 2 0 3-1.2 3-3 0-1.7-1.4-2.5-3.8-3.7l-.8-.4c-3-1.5-5.3-3-5.3-6 0-3.5 3-6.1 7.4-6.1zm-20.4.5c3 0 4.5.3 5.8 1.2a5 5 0 012.2 4.2v.4c0 3-2.3 4.4-3.7 5l1.5 2.5L244 81c2.3 3.7 3.6 4.7 3.6 4.7h-1.1c-4 .2-5-.7-6.2-2.6l-1.1-2-.8-1.3-.9-1.6c-.4-.8-1-1.2-1.7-1.2H234.9v3.8c0 3.3 1.4 4.4 1.8 4.7h.1-8.1s1.8-.7 1.8-4.4V69.7c0-2.9-1-4-1.6-4.4v-.1h8zm-79.6 0L168.5 78v-8.2c0-3-1-4.1-1.6-4.5l-.1-.1h5.6c-.6.5-1.6 1.6-1.7 4.3v11.3c0 3.2 1.4 4.3 1.8 4.6h.1-4.3l-12-14.3v9.6c0 3.3 1.3 4.4 1.7 4.7h.2-6s1.7-.7 1.8-4.4V69.7c0-2.9-1-4-1.6-4.4l-.1-.1h5zm266.8 0v5.6-.3c-.3-.5-.7-1.4-1.2-2-.7-1-1.6-1.3-3.2-1.3h-3.8c-.5 0-.6.1-.6.7V74h2.5c2.2 0 3.7-.2 4.2-1.1v-.2 4.8c-.4-1.1-2-1.3-4.2-1.3h-2.5v4.4c0 1.5 0 2.2.6 2.4.5.2 1 .3 2.1.3h.8c.9 0 3-.1 3.8-1.1a15 15 0 001.8-2.6l.1-.2v6h-15.8s1.8-.8 1.9-4.5V69.7c0-3-1.2-4.1-1.7-4.5H424zm-125.5 0h8.7l-.1.1c-.4.3-1.7 1.4-1 3l.2.2 3.1 5.7 3-5.9c.7-1.4-.7-2.6-1.2-3h-.3 7.5-.2a9 9 0 00-3.5 3.5l-4 7.3v4.6c0 3.4 1.5 4.5 1.9 4.7h-8.2s1.8-.7 2-4.4v-4.6l-4.6-7.7a9.6 9.6 0 00-3.2-3.4zm-1.4 0v5.6-.3c-.3-.5-.7-1.4-1.2-2-.7-1-1.6-1.3-3.2-1.3h-1.3c-1 0-1 0-1 .7v12.8c0 3.3 1.3 4.4 1.7 4.7h.1-8.3c.4-.2 1.8-1.1 1.9-4.4V68c0-.6 0-.7-.7-.7h-1.4c-1.8 0-2.7.3-3.5 1.2a8 8 0 00-1 1.9l-.2.5v-5.6h18.1zm222.5 0h2.4l2.8 7.2 2.9 7.7.6 1.5c.7 1.9 1.2 2.8 2.6 3.7l.2.1H523c1-1 1-2 .7-3l-1-2.5h-6.6l-.7 1.9-.1.3c-.5 1.2-.8 2.7.3 3.3h.1-6c1.4-.7 2.6-2.6 3.4-4.3l6.5-16zm-251.5 0h7.8-.1c-.5.5-1.6 1.6-1.6 4.3v11.3c0 3.4 1.5 4.4 1.8 4.6H268s1.8-.7 1.9-4.4V69.7c0-2.9-1-4-1.6-4.4l-.1-.1zm231.8 0h7.8c-.6.5-1.6 1.6-1.7 4.3v11.3c0 3.3 1.5 4.4 1.8 4.6h.1-8.2s1.8-.7 1.9-4.4V69.7c0-3-1.2-4.1-1.7-4.5zm-305.7 0c-1 1.1-1 2-.7 3l4 11 4-10 .3-.7c.5-1.2.7-2.7-.3-3.2l-.2-.1h5.9c-1.4.7-2.6 2.6-3.3 4.3l-6.6 16h-2.1l-2.4-6.5-3-7.8-.7-1.9c-.8-2-1.4-3-2.8-4l-.2-.1h8.1zm-17.7 0h7.8c-.6.5-1.6 1.6-1.7 4.3v11.3c0 3.3 1.5 4.4 1.8 4.6h.1-8.2s1.8-.7 2-4.4V69.7c0-2.9-1.1-4-1.7-4.4v-.1zm194.7 0v5.5l-.2-.4-1-2c-.8-.8-1.6-1.1-3.3-1.1h-3.4c-.8 0-1 0-1 .5V74.1h2.5c2.3 0 3.7-.2 4.2-1.1v-.2 4.8c-.4-1-1.6-1.1-3.4-1.2h-3.3v4.3c0 3.4 1.5 4.5 1.8 4.7h.1-8.4s1.8-.7 2-4.4V69.7c0-2.9-1.2-4-1.7-4.4l-.1-.1h15.2zm-147.4 0v5.6l-.1-.3c-.2-.5-.6-1.4-1.1-2-.7-1-1.6-1.3-3.3-1.3H215.4c-.2 0-.4.1-.4.3v6.6h2.4c2.3 0 3.7-.2 4.2-1.1v-.2 4.8c-.3-1-1.5-1.2-3.4-1.3H215v4.4c0 1.5 0 2.2.6 2.4.4.2 1 .3 2 .3h.9c.9 0 3-.1 3.8-1.1.8-.9 1.4-2 1.7-2.6l.2-.2v6h-15.7s1.8-.8 2-4.5V69.7c0-3-1.2-4.1-1.7-4.5h15zm117 1.2c-3.4 0-5.7 3.5-5.7 8.4 0 5.4 2.7 9.4 6.5 9.4 3.4 0 5.6-3.2 5.6-8.3 0-5.8-2.5-9.5-6.4-9.5zm98.6.3c-3.4 0-5.7 3.2-5.7 8 0 5.5 2.7 9.2 6.5 9.2 3.4 0 5.5-3 5.5-8 0-5.8-2.5-9.2-6.3-9.2zM522 77.6l-2.3-6.3-2.6 6.3h4.9zM236.5 66.8c-.7 0-1.1 0-1.3.3-.2 0-.2.3-.2.8V75.3h.5c1.4 0 2.4-.2 3-.6v-.1c1-.9 1.5-2 1.5-3.6 0-3.1-1.8-4.2-3.5-4.2zm225.8 0c1.7 0 3.5 1 3.5 4.2 0 1.5-.4 2.6-1.3 3.4l-.2.2c-.6.5-1.6.7-3 .7h-.6V68c0-.5 0-.8.2-1l1.4-.2z"/>
  </g>
</svg>
