<svg width="200" height="90" viewBox="0 0 559 219" xmlns="http://www.w3.org/2000/svg" xmlns:xlink="http://www.w3.org/1999/xlink">
 <title>University of Georgia</title>
<defs><path id="a" d="M0 .47h123.603v179.562H0z"/></defs>
<g fill="none" fill-rule="evenodd"><g transform="translate(0 -.469)"><mask id="b" fill="#fff"><use xlink:href="#a"/></mask><path d="M123.603.47V132.1c0 25.11-31.411 42.778-61.802 47.931C31.41 174.88 0 157.212 0 132.102V.468h123.603z" fill="#FFF" mask="url(#b)"/></g><path d="M83.063 30.915A32.728 32.728 0 0 0 61.6 22.9a32.733 32.733 0 0 0-21.464 8.014c-5.424 4.71-9.19 11.155-10.62 18.16h64.168c-1.43-7.005-5.197-13.45-10.621-18.16M56.18 55.569H30.685c-1.112.15-1.975 1.095-2.031 2.246v51.913c0 1.196.659 2.28 1.72 2.829a.546.546 0 0 1 .295.484v13.369l4.019-3.811h21.542v-9.563c0-.203.113-.39.293-.482a3.175 3.175 0 0 0 1.714-2.826V57.915c0-1.182-.884-2.19-2.055-2.346M92.484 55.569H66.987c-1.112.15-1.975 1.095-2.03 2.246v51.913c0 1.196.658 2.28 1.72 2.829a.546.546 0 0 1 .294.484v13.369l4.018-3.811h21.542v-9.563c0-.203.113-.39.293-.482a3.176 3.176 0 0 0 1.715-2.826V57.915c0-1.182-.884-2.19-2.055-2.346" fill="#000"/><path d="M22.715 158.519c10.203 7.18 24.403 12.762 39.086 15.38 14.684-2.618 28.884-8.2 39.086-15.38 7.817-5.501 17.136-14.632 17.136-26.887v-2.977h-14.747v10.572c0 .3-.244.543-.545.543h-9.655a.545.545 0 0 1-.545-.543v-10.572H66.97v10.572c0 .3-.242.543-.543.543h-9.655a.543.543 0 0 1-.544-.543v-10.572H30.668v10.572c0 .3-.243.543-.544.543h-9.655a.543.543 0 0 1-.544-.543v-10.572H5.579v2.977c0 12.255 9.319 21.386 17.136 26.887" fill="#BA0B2F"/><path d="M19.925 113.036c0-.203.113-.39.293-.482a3.174 3.174 0 0 0 1.715-2.826V57.914a2.378 2.378 0 0 0-2.038-2.343.542.542 0 0 1-.468-.538v-5.414c0-.301.243-.544.544-.544h3.903c1.497-8.637 5.979-16.57 12.628-22.345A38.271 38.271 0 0 1 61.6 17.357a38.27 38.27 0 0 1 25.097 9.373c6.65 5.776 11.132 13.708 12.629 22.345h3.903c.3 0 .544.243.544.544v5.41a.544.544 0 0 1-.471.54 2.379 2.379 0 0 0-2.044 2.245v51.914c0 1.196.66 2.28 1.723 2.829.18.094.293.28.294.483v13.374l4.017-3.811v-.004h10.73V5.579H5.579v117.02h14.346v-9.563z" fill="#000"/><path d="M44.673 158.793V148.44l-5.472.377v.715l.13-.001c.91 0 1.462.139 1.775.445.253.248.359.598.359 1.174v7.643c0 .706-.698.863-2.167.918v.734h7.562v-.734c-1.482-.055-2.187-.212-2.187-.918M50.968 152.861c.347-1.438.726-1.857 2.454-1.857h4.335l-.08.11-6.43 8.842v.663h2.499l2.438-4.896 3.379-5.984v-1.266h-9.168l-.113 4.388h.686zM67.442 159.965a2.54 2.54 0 0 1-2.565-2.507c0-.793.27-1.454.85-2.08l.034-.036.046.02c.188.086.411.165.648.229 2.281.754 3.09 1.405 3.09 2.486 0 1.147-.827 1.888-2.103 1.888zm-.29-10.993c1.405 0 2.313.809 2.313 2.063 0 .879-.27 1.558-.908 2.27l-.03.036-.045-.016c-1.579-.578-3.12-1.261-3.12-2.677 0-1.1.9-1.676 1.79-1.676zm2.173 4.67l.162-.061c1.575-.593 2.374-1.45 2.374-2.546 0-1.383-1.39-2.872-4.439-2.872-2.836 0-4.669 1.469-4.669 3.742 0 1.186.671 2.175 1.996 2.938l.126.073-.135.052c-1.563.618-2.356 1.54-2.356 2.74 0 1.949 1.851 3.066 5.078 3.066 2.727 0 4.786-1.618 4.786-3.762 0-1.425-.904-2.505-2.763-3.301l-.16-.068zM80.772 153.213c-1.097 0-1.944.17-2.835.574l-.103.047.004-.114.14-2.813h6.6l.181-2.434h-7.906l-.247 5.972.595.473c.864-.471 1.58-.742 2.643-.742 1.606 0 2.527 1.013 2.527 2.779 0 1.97-.844 2.97-2.508 2.97-.576 0-1.412-.207-1.688-.42l-.087-.066.1-.051c.44-.221.89-.796.89-1.466 0-.793-.477-1.594-1.537-1.594-1.022 0-1.71.664-1.71 1.652 0 1.726 1.775 2.755 4.748 2.755 3.275 0 4.767-2.05 4.767-3.954 0-2.631-2.362-3.568-4.575-3.568M118.105 160.619h1.096l1.198 1.925 1.198-1.925h1.067v4.56h-.978v-3.08l-1.259 1.999h-.089l-1.256-2v3.08h-.977v-4.56zm-3.36.918h-1.363v-.918h3.76v.918h-1.361v3.642h-1.037v-3.642zM320.688 101.497c0 14.505-6.25 23.876-15.923 23.876-10.938 0-18.876-11.433-18.876-27.188 0-14.2 6.796-24.117 16.526-24.117h.06c11.064 0 18.213 10.767 18.213 27.43m-16.465-32.269h-.06c-21.66 0-32.993 15.354-32.993 30.522 0 17.4 13.692 30.522 31.847 30.522 18.769 0 32.39-13.14 32.39-31.245 0-16.988-13.406-29.799-31.184-29.799M209.77 104.729v22.26l-2.322.52c-5.458 1.233-12.249 2.764-18.56 2.764-21.689 0-35.703-11.768-35.703-29.98 0-21.343 18.488-31.063 35.667-31.063 7.762 0 18.97 3.083 18.97 3.083v13.92S202.44 74.08 189.27 74.08c-8.835 0-16.823 6.014-19.874 14.964a32.012 32.012 0 0 0-1.553 9.743c0 18.449 11.024 26.706 21.948 26.706 1.636 0 3.833-.265 5.096-1.013 1.266-.783 1.911-2.315 1.911-4.55V106.78c0-7.588-5.472-9.83-5.472-9.83h22.407s-3.964.988-3.964 7.779M451.99 104.729v22.26l-2.322.52c-5.458 1.233-12.25 2.764-18.56 2.764-21.69 0-35.704-11.768-35.704-29.98 0-21.343 18.488-31.063 35.667-31.063 7.763 0 18.97 3.083 18.97 3.083v13.92s-5.384-12.152-18.55-12.152c-8.838 0-16.824 6.014-19.875 14.964a31.982 31.982 0 0 0-1.554 9.743c0 18.449 11.024 26.706 21.948 26.706 1.635 0 3.833-.265 5.095-1.013 1.266-.783 1.913-2.315 1.913-4.55V106.78c0-7.588-5.473-9.83-5.473-9.83h22.408s-3.964.988-3.964 7.779M247.024 123.867c-3.833 0-5.915-.118-7.398-.8-1.572-.662-1.849-2.724-1.849-6.81V101.84h7.175c6.48 0 10.916.364 12.222 3.513V92.588c-1.237 3.133-5.47 3.688-12.222 3.688h-7.175v-18.21c0-2.552 0-2.552 3.213-2.552h8.653c5.306 0 7.91.884 10.08 3.552 2.168 2.668 3.566 6.685 3.566 6.685V70.554h-43.55c1.371.916 4.946 4.167 4.946 13.202l-.013 31.625c0 11.175-5.46 13.507-5.46 13.507h45.141v-16.336s-2.42 4.817-5.39 8.175c-2.969 3.357-10.809 3.14-11.939 3.14M383.934 115.777c-2.571-4.232-6.481-10.558-8.414-14.134 4.147-1.73 10.465-5.756 10.465-14.212v-.015c.03-.416.052-.84.052-1.279 0-5.1-2.2-9.425-6.196-12.18-3.69-2.48-8.21-3.403-16.676-3.403h-22.998c1.37.916 4.946 4.168 4.946 13.202l-.013 31.625c0 11.176-5.461 13.507-5.461 13.507h23.606s-5.461-2.33-5.461-13.507v-11.07h1.225c2.659 0 4.186.924 5.629 3.407.898 1.59 1.759 3.18 2.598 4.726 1.647 3.04 3.774 7.09 5.324 9.464 3.663 5.598 7.189 8.033 18.422 7.673 0 0 1.914-.069 3.375-.193 0 0-3.851-2.796-10.423-13.61m-11.531-28.375c0 4.477-1.322 7.7-4.157 10.145l-.003.004c-1.7 1.492-4.562 2.218-8.752 2.218h-1.707V78.787c0-1.665.17-2.469.59-2.848.688-.562 1.996-.847 3.888-.847 4.902 0 10.14 3.234 10.14 12.311M485.556 128.888s-5.461-2.331-5.461-13.507l-.013-31.624c0-9.035 3.575-12.287 4.946-13.202h-22.562c1.37.915 4.945 4.167 4.945 13.202l-.012 31.624c0 11.176-5.461 13.507-5.461 13.507h23.618zM508.499 106.313c3.525-8.533 7.505-18.08 7.505-18.08s3.441 9.502 6.545 18.08h-14.05zm40.483 22.575c-4.998-3.098-6.347-6.056-9.22-13.544-4.853-12.515-11.542-30.329-16.827-44.45l-.127-.34h-6.199l-18.553 45.085c-2.036 5.03-5.676 11.1-9.87 13.25h16.322c-3.498-1.463-2.702-6.044-1.266-9.655.272-.759 1.404-3.554 2.891-7.177h18.493c1.485 4.11 2.612 7.231 2.771 7.688 1.168 3.288 1.065 5.755-1.835 9.143h23.42zM162.855 46.758V33.944c0-1.174-.383-1.516-3.216-1.629v-1.707h13.132v1.707c-1.874.113-2.984.38-2.984 1.63v13.002c0 4.436 2.028 6.332 6.125 6.332 1.645 0 2.948-.455 3.904-1.403 1.189-1.175 1.762-2.805 1.762-5.687v-8.15c0-3.639-.804-5.384-4.44-5.724v-1.707h10.337v1.707c-3.407.416-3.56 2.085-3.56 5.724v8.795c0 5.8-3.18 9.326-9.994 9.326-7.006 0-11.066-2.653-11.066-9.402M201.022 37.811h-.23v10.312c0 3.677.458 5.383 4.133 5.724v1.706h-10.184v-1.706c3.408-.379 3.83-2.01 3.83-5.724V35.916c0-2.01-.728-3.526-3.83-3.602v-1.706h9.037l13.133 16.34h.23v-8.909c0-3.639-.804-5.384-4.442-5.725v-1.706h10.222v1.706c-3.407.417-3.56 2.086-3.56 5.725V55.78h-3.867l-14.472-17.969zM230.35 53.847c2.833-.114 3.293-.455 3.293-1.63V33.944c0-1.175-.46-1.516-3.293-1.63v-1.706h13.517v1.706c-2.835.114-3.293.455-3.293 1.63v18.273c0 1.175.458 1.516 3.293 1.63v1.706H230.35v-1.706zM254.567 34.779c-.613-1.592-1.302-2.01-3.715-2.464v-1.706h14.205v1.706c-3.33.19-3.79.872-3.33 2.16l5.4 15.392h.38l4.52-12.927c1.148-3.3 1.148-4.095-2.45-4.625v-1.706h9.685v1.706c-2.603.53-2.947 1.44-4.173 4.587L267.89 55.78h-5.435l-7.888-21.002zM285.139 53.847c2.835-.114 3.218-.455 3.218-1.63V33.944c0-1.175-.383-1.516-3.218-1.63v-1.706h22.36l.346 8.947-2.067.076c-1.493-4.284-2.95-7.203-7.62-7.203h-2.872v9.63h.575c2.45 0 3.293-.342 4.632-3.716h1.724v9.363h-1.724c-1.34-3.374-2.182-3.828-4.632-3.828h-.575v9.82h2.49c5.59 0 7.12-2.996 8.883-7.849l2.067.076-.383 9.63h-23.204v-1.707zM329.762 42.21c3.943 0 4.747-1.252 4.747-5.043 0-3.109-1.071-4.739-5.017-4.739h-1.262v9.781h1.532zm-1.532 10.007c0 1.251 1.11 1.516 2.985 1.63v1.706h-13.132v-1.706c2.833-.114 3.215-.454 3.215-1.63V33.944c0-1.174-.382-1.516-3.215-1.63v-1.706h13.593c7.657 0 9.917 2.92 9.917 6.066 0 3.033-1.723 5.383-7.543 6.255v.113c5.359.04 6.853 2.124 7.159 5.005l.306 2.73c.269 2.54.65 2.92 3.37 3.07v1.706a50.448 50.448 0 0 1-3.905.152c-5.591 0-6.433-1.44-6.662-4.435l-.231-2.919c-.152-3.64-.956-4.399-4.9-4.399h-.957v8.265zM353.113 47.289h2.067c1.954 4.17 4.595 6.975 7.774 6.975 2.833 0 4.057-1.857 4.057-3.64 0-2.425-1.378-3.411-5.513-4.624-4.25-1.251-8.233-3.147-8.233-7.81 0-4.814 3.524-8.188 8.998-8.188 1.954 0 4.097.569 5.246 1.213l1.035-1.364h1.952v7.885h-2.068c-1.837-3.601-3.982-5.838-6.624-5.838-2.068 0-3.445 1.402-3.445 3.336 0 2.426 1.492 3.222 5.858 4.549 3.522 1.062 7.465 2.843 7.465 7.544 0 4.663-2.833 8.833-9.456 8.833-2.068 0-4.634-.38-6.127-1.213l-1.034 1.364h-1.952v-9.022zM379.932 53.847c2.835-.114 3.293-.455 3.293-1.63V33.944c0-1.175-.458-1.516-3.293-1.63v-1.706h13.517v1.706c-2.833.114-3.293.455-3.293 1.63v18.273c0 1.175.46 1.516 3.293 1.63v1.706h-13.517v-1.706zM407.422 53.847c3.179-.076 3.79-.455 3.79-1.63V32.428h-.306c-2.794 0-4.44 2.691-6.355 7.203l-1.991-.076.19-8.947h23.855l.193 8.947-1.992.076c-1.877-4.663-3.561-7.203-6.357-7.203h-.305v19.79c0 1.174.612 1.553 3.79 1.63v1.705h-14.512v-1.706zM453.577 36.598c1.761-2.919 1.532-3.943-1.494-4.284v-1.706h9.305v1.706c-2.297.341-3.064 1.326-4.71 3.905l-5.207 8.15v7.848c0 1.175.46 1.516 3.293 1.63v1.706h-13.517v-1.706c2.835-.114 3.294-.455 3.294-1.63v-7.014l-6.357-10.576c-.919-1.517-1.532-2.047-3.867-2.313v-1.706h13.784v1.706c-3.254.152-3.215.834-2.375 2.35l4.29 7.772 3.561-5.838zM498.222 43.081c0-8.113-1.57-11.184-5.63-11.184-4.058 0-5.321 3.071-5.321 11.184 0 8.15 1.57 11.183 5.629 11.183 4.059 0 5.322-3.033 5.322-11.183m-18.38.075c0-7.999 5.093-13.155 12.905-13.155 8 0 12.903 5.005 12.903 13.004 0 8.036-5.093 13.155-12.903 13.155-8.003 0-12.904-4.967-12.904-13.004M512.692 53.847c2.833-.114 3.216-.455 3.216-1.63V33.944c0-1.175-.383-1.516-3.216-1.63v-1.706h22.361v8.947l-2.068.076c-1.607-4.55-3.369-7.203-8.04-7.203h-2.106v9.932h.651c2.45 0 3.293-.265 4.556-3.41h1.724v9.06h-1.724c-1.339-3.375-2.106-3.83-4.556-3.83h-.65v8.037c0 1.251.037 1.592 3.445 1.706v1.63h-13.593v-1.706zM180.086 166.348c0-8.088-2.456-11.414-6.765-11.414-4.271 0-6.425 3.326-6.425 11.414 0 8.126 2.457 11.415 6.727 11.415 4.309 0 6.463-3.29 6.463-11.415m-18.897.076c0-7.975 5.139-13.116 12.283-13.116 7.333 0 12.322 4.99 12.322 12.965 0 8.012-5.179 13.115-12.322 13.115-7.332 0-12.283-4.952-12.283-12.964M188.555 177.422c2.154-.038 2.646-.416 2.646-1.323V164.76c0-1.133-.492-1.814-2.646-1.852v-1.36l7.068-.302v2.797c1.928-1.513 4.233-2.91 6.69-2.91 2.986 0 4.46 1.927 4.46 5.442v9.524c0 .907.454 1.285 2.645 1.323v1.361h-9.298v-1.36c1.626-.039 2.155-.417 2.155-1.324v-8.39c0-2.608-.907-3.629-2.91-3.629-1.436 0-2.646.605-3.666 1.247V176.1c0 .907.529 1.285 2.116 1.323v1.361h-9.26v-1.36zM210.933 177.422c2.154-.038 2.646-.416 2.646-1.323v-20.145c0-1.134-.567-1.814-2.797-1.852v-1.36l7.295-.303v23.66c0 .907.454 1.285 2.645 1.323v1.361h-9.79v-1.36zM224.805 155.085c0-1.701 1.096-2.873 2.759-2.873 1.663 0 2.76 1.097 2.76 2.76 0 1.7-1.097 2.835-2.76 2.835-1.663 0-2.76-1.021-2.76-2.722zm-2.154 22.337c2.154-.037 2.72-.415 2.72-1.322v-11.34c0-1.133-.528-1.813-2.72-1.851v-1.361l7.218-.302V176.1c0 .907.455 1.285 2.646 1.322v1.36h-9.864v-1.36zM234.595 177.422c2.154-.038 2.646-.416 2.646-1.323V164.76c0-1.133-.492-1.814-2.646-1.852v-1.36l7.068-.302v2.797c1.928-1.513 4.233-2.91 6.69-2.91 2.986 0 4.46 1.927 4.46 5.442v9.524c0 .907.454 1.285 2.645 1.323v1.361h-9.298v-1.36c1.626-.039 2.155-.417 2.155-1.324v-8.39c0-2.608-.907-3.629-2.91-3.629-1.436 0-2.646.605-3.666 1.247V176.1c0 .907.529 1.285 2.116 1.323v1.361h-9.26v-1.36zM262.113 168.503l6.728-.114c.377-3.25-.68-5.934-3.1-5.934-2.078 0-3.363 2.004-3.628 6.048m-4.8 1.776c0-5.594 3.477-9.297 8.693-9.297 5.253 0 7.786 4.157 7.484 8.88h-11.415V170.09c0 4.044 1.814 6.84 5.367 6.84 2.003 0 3.704-1.208 5.178-3.098l.945.794c-1.588 2.57-3.779 4.535-7.559 4.535-5.594 0-8.693-3.477-8.693-8.882M283.66 177.309c2.985-.113 3.553-.454 3.553-1.625v-18.71c0-1.171-.568-1.511-3.553-1.624v-1.437h12.36v1.437c-2.987.113-3.59.453-3.59 1.625v20.145h2.606c5.254 0 6.69-2.457 8.353-7.635l1.625.076-.226 9.222H283.66v-1.474zM312.198 168.503l6.728-.114c.377-3.25-.68-5.934-3.1-5.934-2.078 0-3.363 2.004-3.628 6.048m-4.8 1.776c0-5.594 3.477-9.297 8.693-9.297 5.253 0 7.786 4.157 7.484 8.88H312.16V170.09c0 4.044 1.814 6.84 5.367 6.84 2.003 0 3.704-1.208 5.178-3.098l.945.794c-1.588 2.57-3.779 4.535-7.559 4.535-5.594 0-8.693-3.477-8.693-8.882M337.032 174.814v-4.875c-4.384.718-5.707 1.55-5.707 3.854 0 1.664.907 2.835 2.608 2.835 1.286 0 2.42-.869 3.1-1.814m-10.546-.038c0-1.51.794-3.174 2.381-4.044 2.76-1.512 7.106-1.738 8.164-2.192v-1.7c0-3.25-1.02-4.234-3.175-4.234-.869 0-1.512.227-2.003.605.265.567.491 1.171.491 1.852 0 1.398-.982 2.457-2.607 2.457-1.588 0-2.457-1.02-2.457-2.419 0-2.268 2.985-3.969 7.635-3.969 4.46 0 6.54 2.041 6.54 6.085v7.748c0 1.852.414 2.23 2.681 1.852l.341 1.06c-1.398.754-2.57 1.17-3.968 1.17-2.306 0-2.797-.869-3.25-2.683h-.152c-1.512 1.587-3.477 2.76-5.67 2.76-3.476 0-4.95-2.23-4.95-4.348M345.462 177.422c2.154-.038 2.646-.416 2.646-1.323V164.76c0-1.133-.492-1.814-2.646-1.852v-1.36l7.068-.302v3.061c1.323-1.7 3.099-3.175 5.103-3.175 2.154 0 3.212 1.398 3.212 3.024 0 1.587-1.021 2.76-2.456 2.76-1.55 0-2.571-.87-2.571-2.269 0-.189.039-.49.076-.718-1.323-.038-2.571.907-3.288 1.814V176.1c0 .907.642 1.248 3.326 1.323v1.361h-10.47v-1.36zM362.358 177.422c2.154-.038 2.646-.416 2.646-1.323V164.76c0-1.133-.492-1.814-2.646-1.852v-1.36l7.068-.302v2.797c1.928-1.513 4.233-2.91 6.69-2.91 2.986 0 4.46 1.927 4.46 5.442v9.524c0 .907.454 1.285 2.645 1.323v1.361h-9.298v-1.36c1.626-.039 2.155-.417 2.155-1.324v-8.39c0-2.608-.907-3.629-2.91-3.629-1.436 0-2.646.605-3.666 1.247V176.1c0 .907.53 1.285 2.116 1.323v1.361h-9.26v-1.36zM387.08 155.085c0-1.701 1.096-2.873 2.76-2.873 1.662 0 2.76 1.097 2.76 2.76 0 1.7-1.098 2.835-2.76 2.835-1.664 0-2.76-1.021-2.76-2.722zm-2.154 22.337c2.154-.037 2.72-.415 2.72-1.322v-11.34c0-1.133-.528-1.813-2.72-1.851v-1.361l7.218-.302V176.1c0 .907.455 1.285 2.646 1.322v1.36h-9.864v-1.36zM396.87 177.422c2.154-.038 2.646-.416 2.646-1.323V164.76c0-1.133-.492-1.814-2.646-1.852v-1.36l7.068-.302v2.797c1.928-1.513 4.233-2.91 6.69-2.91 2.986 0 4.46 1.927 4.46 5.442v9.524c0 .907.454 1.285 2.645 1.323v1.361h-9.298v-1.36c1.626-.039 2.155-.417 2.155-1.324v-8.39c0-2.608-.907-3.629-2.91-3.629-1.436 0-2.646.605-3.666 1.247V176.1c0 .907.53 1.285 2.116 1.323v1.361h-9.26v-1.36zM430.398 166.953c0-2.797-1.134-4.422-3.1-4.422-1.889 0-2.758 1.247-2.758 4.422 0 3.212 1.171 4.46 3.098 4.46 1.853 0 2.76-1.248 2.76-4.46m2.872 14.892c0-1.437-.982-2.268-5.48-2.268h-3.137c-1.588.453-2.532 1.209-2.532 2.532 0 1.663 1.851 3.024 5.782 3.024 3.251 0 5.367-1.361 5.367-3.288m-2.38-20.146c.868-1.701 2.002-3.212 3.968-3.212 1.474 0 2.306.869 2.306 2.003 0 .945-.68 1.776-1.74 1.776-.869 0-1.663-.642-1.663-1.89-.756.265-1.435.983-1.813 1.815 1.738.945 2.834 2.532 2.834 4.686 0 3.666-3.062 5.934-7.294 5.934a12.43 12.43 0 0 1-2.079-.19c-1.399.53-2.116 1.022-2.116 1.702 0 .756.755 1.36 4.081 1.36h1.701c5.064 0 7.37 1.399 7.37 4.687 0 3.213-3.477 6.16-9.525 6.16-4.686 0-7.824-1.737-7.824-4.005 0-1.663 1.513-3.1 4.423-3.515v-.19c-2.344-.717-3.1-1.738-3.1-3.212 0-1.398 1.06-2.494 3.175-3.477-2.079-.87-3.477-2.532-3.477-5.102 0-3.63 3.1-5.897 7.371-5.897 1.21 0 2.381.189 3.401.567" fill="#FFF"/><path d="M320.688 101.497c0 14.505-6.25 23.876-15.923 23.876-10.938 0-18.876-11.433-18.876-27.188 0-14.2 6.796-24.117 16.526-24.117h.06c11.064 0 18.213 10.767 18.213 27.43m-16.465-32.269h-.06c-21.66 0-32.993 15.354-32.993 30.522 0 17.4 13.692 30.522 31.847 30.522 18.769 0 32.39-13.14 32.39-31.245 0-16.988-13.406-29.799-31.184-29.799M209.77 104.729v22.26l-2.322.52c-5.458 1.233-12.249 2.764-18.56 2.764-21.689 0-35.703-11.768-35.703-29.98 0-21.343 18.488-31.063 35.667-31.063 7.762 0 18.97 3.083 18.97 3.083v13.92S202.44 74.08 189.27 74.08c-8.835 0-16.823 6.014-19.874 14.964a32.012 32.012 0 0 0-1.553 9.743c0 18.449 11.024 26.706 21.948 26.706 1.636 0 3.833-.265 5.096-1.013 1.266-.783 1.911-2.315 1.911-4.55V106.78c0-7.588-5.472-9.83-5.472-9.83h22.407s-3.964.988-3.964 7.779M451.99 104.729v22.26l-2.322.52c-5.458 1.233-12.25 2.764-18.56 2.764-21.69 0-35.704-11.768-35.704-29.98 0-21.343 18.488-31.063 35.667-31.063 7.763 0 18.97 3.083 18.97 3.083v13.92s-5.384-12.152-18.55-12.152c-8.838 0-16.824 6.014-19.875 14.964a31.982 31.982 0 0 0-1.554 9.743c0 18.449 11.024 26.706 21.948 26.706 1.635 0 3.833-.265 5.095-1.013 1.266-.783 1.913-2.315 1.913-4.55V106.78c0-7.588-5.473-9.83-5.473-9.83h22.408s-3.964.988-3.964 7.779M247.024 123.867c-3.833 0-5.915-.118-7.398-.8-1.572-.662-1.849-2.724-1.849-6.81V101.84h7.175c6.48 0 10.916.364 12.222 3.513V92.588c-1.237 3.133-5.47 3.688-12.222 3.688h-7.175v-18.21c0-2.552 0-2.552 3.213-2.552h8.653c5.306 0 7.91.884 10.08 3.552 2.168 2.668 3.566 6.685 3.566 6.685V70.554h-43.55c1.371.916 4.946 4.167 4.946 13.202l-.013 31.625c0 11.175-5.46 13.507-5.46 13.507h45.141v-16.336s-2.42 4.817-5.39 8.175c-2.969 3.357-10.809 3.14-11.939 3.14M383.934 115.777c-2.571-4.232-6.481-10.558-8.414-14.134 4.147-1.73 10.465-5.756 10.465-14.212v-.015c.03-.416.052-.84.052-1.279 0-5.1-2.2-9.425-6.196-12.18-3.69-2.48-8.21-3.403-16.676-3.403h-22.998c1.37.916 4.946 4.168 4.946 13.202l-.013 31.625c0 11.176-5.461 13.507-5.461 13.507h23.606s-5.461-2.33-5.461-13.507v-11.07h1.225c2.659 0 4.186.924 5.629 3.407.898 1.59 1.759 3.18 2.598 4.726 1.647 3.04 3.774 7.09 5.324 9.464 3.663 5.598 7.189 8.033 18.422 7.673 0 0 1.914-.069 3.375-.193 0 0-3.851-2.796-10.423-13.61m-11.531-28.375c0 4.477-1.322 7.7-4.157 10.145l-.003.004c-1.7 1.492-4.562 2.218-8.752 2.218h-1.707V78.787c0-1.665.17-2.469.59-2.848.688-.562 1.996-.847 3.888-.847 4.902 0 10.14 3.234 10.14 12.311M485.556 128.888s-5.461-2.331-5.461-13.507l-.013-31.624c0-9.035 3.575-12.287 4.946-13.202h-22.562c1.37.915 4.945 4.167 4.945 13.202l-.012 31.624c0 11.176-5.461 13.507-5.461 13.507h23.618zM508.499 106.313c3.525-8.533 7.505-18.08 7.505-18.08s3.441 9.502 6.545 18.08h-14.05zm40.483 22.575c-4.998-3.098-6.347-6.056-9.22-13.544-4.853-12.515-11.542-30.329-16.827-44.45l-.127-.34h-6.199l-18.553 45.085c-2.036 5.03-5.676 11.1-9.87 13.25h16.322c-3.498-1.463-2.702-6.044-1.266-9.655.272-.759 1.404-3.554 2.891-7.177h18.493c1.485 4.11 2.612 7.231 2.771 7.688 1.168 3.288 1.065 5.755-1.835 9.143h23.42zM162.855 46.758V33.944c0-1.174-.383-1.516-3.216-1.629v-1.707h13.132v1.707c-1.874.113-2.984.38-2.984 1.63v13.002c0 4.436 2.028 6.332 6.125 6.332 1.645 0 2.948-.455 3.904-1.403 1.189-1.175 1.762-2.805 1.762-5.687v-8.15c0-3.639-.804-5.384-4.44-5.724v-1.707h10.337v1.707c-3.407.416-3.56 2.085-3.56 5.724v8.795c0 5.8-3.18 9.326-9.994 9.326-7.006 0-11.066-2.653-11.066-9.402M201.022 37.811h-.23v10.312c0 3.677.458 5.383 4.133 5.724v1.706h-10.184v-1.706c3.408-.379 3.83-2.01 3.83-5.724V35.916c0-2.01-.728-3.526-3.83-3.602v-1.706h9.037l13.133 16.34h.23v-8.909c0-3.639-.804-5.384-4.442-5.725v-1.706h10.222v1.706c-3.407.417-3.56 2.086-3.56 5.725V55.78h-3.867l-14.472-17.969zM230.35 53.847c2.833-.114 3.293-.455 3.293-1.63V33.944c0-1.175-.46-1.516-3.293-1.63v-1.706h13.517v1.706c-2.835.114-3.293.455-3.293 1.63v18.273c0 1.175.458 1.516 3.293 1.63v1.706H230.35v-1.706zM254.567 34.779c-.613-1.592-1.302-2.01-3.715-2.464v-1.706h14.205v1.706c-3.33.19-3.79.872-3.33 2.16l5.4 15.392h.38l4.52-12.927c1.148-3.3 1.148-4.095-2.45-4.625v-1.706h9.685v1.706c-2.603.53-2.947 1.44-4.173 4.587L267.89 55.78h-5.435l-7.888-21.002zM285.139 53.847c2.835-.114 3.218-.455 3.218-1.63V33.944c0-1.175-.383-1.516-3.218-1.63v-1.706h22.36l.346 8.947-2.067.076c-1.493-4.284-2.95-7.203-7.62-7.203h-2.872v9.63h.575c2.45 0 3.293-.342 4.632-3.716h1.724v9.363h-1.724c-1.34-3.374-2.182-3.828-4.632-3.828h-.575v9.82h2.49c5.59 0 7.12-2.996 8.883-7.849l2.067.076-.383 9.63h-23.204v-1.707zM329.762 42.21c3.943 0 4.747-1.252 4.747-5.043 0-3.109-1.071-4.739-5.017-4.739h-1.262v9.781h1.532zm-1.532 10.007c0 1.251 1.11 1.516 2.985 1.63v1.706h-13.132v-1.706c2.833-.114 3.215-.454 3.215-1.63V33.944c0-1.174-.382-1.516-3.215-1.63v-1.706h13.593c7.657 0 9.917 2.92 9.917 6.066 0 3.033-1.723 5.383-7.543 6.255v.113c5.359.04 6.853 2.124 7.159 5.005l.306 2.73c.269 2.54.65 2.92 3.37 3.07v1.706a50.448 50.448 0 0 1-3.905.152c-5.591 0-6.433-1.44-6.662-4.435l-.231-2.919c-.152-3.64-.956-4.399-4.9-4.399h-.957v8.265zM353.113 47.289h2.067c1.954 4.17 4.595 6.975 7.774 6.975 2.833 0 4.057-1.857 4.057-3.64 0-2.425-1.378-3.411-5.513-4.624-4.25-1.251-8.233-3.147-8.233-7.81 0-4.814 3.524-8.188 8.998-8.188 1.954 0 4.097.569 5.246 1.213l1.035-1.364h1.952v7.885h-2.068c-1.837-3.601-3.982-5.838-6.624-5.838-2.068 0-3.445 1.402-3.445 3.336 0 2.426 1.492 3.222 5.858 4.549 3.522 1.062 7.465 2.843 7.465 7.544 0 4.663-2.833 8.833-9.456 8.833-2.068 0-4.634-.38-6.127-1.213l-1.034 1.364h-1.952v-9.022zM379.932 53.847c2.835-.114 3.293-.455 3.293-1.63V33.944c0-1.175-.458-1.516-3.293-1.63v-1.706h13.517v1.706c-2.833.114-3.293.455-3.293 1.63v18.273c0 1.175.46 1.516 3.293 1.63v1.706h-13.517v-1.706zM407.422 53.847c3.179-.076 3.79-.455 3.79-1.63V32.428h-.306c-2.794 0-4.44 2.691-6.355 7.203l-1.991-.076.19-8.947h23.855l.193 8.947-1.992.076c-1.877-4.663-3.561-7.203-6.357-7.203h-.305v19.79c0 1.174.612 1.553 3.79 1.63v1.705h-14.512v-1.706zM453.577 36.598c1.761-2.919 1.532-3.943-1.494-4.284v-1.706h9.305v1.706c-2.297.341-3.064 1.326-4.71 3.905l-5.207 8.15v7.848c0 1.175.46 1.516 3.293 1.63v1.706h-13.517v-1.706c2.835-.114 3.294-.455 3.294-1.63v-7.014l-6.357-10.576c-.919-1.517-1.532-2.047-3.867-2.313v-1.706h13.784v1.706c-3.254.152-3.215.834-2.375 2.35l4.29 7.772 3.561-5.838zM498.222 43.081c0-8.113-1.57-11.184-5.63-11.184-4.058 0-5.321 3.071-5.321 11.184 0 8.15 1.57 11.183 5.629 11.183 4.059 0 5.322-3.033 5.322-11.183m-18.38.075c0-7.999 5.093-13.155 12.905-13.155 8 0 12.903 5.005 12.903 13.004 0 8.036-5.093 13.155-12.903 13.155-8.003 0-12.904-4.967-12.904-13.004M512.692 53.847c2.833-.114 3.216-.455 3.216-1.63V33.944c0-1.175-.383-1.516-3.216-1.63v-1.706h22.361v8.947l-2.068.076c-1.607-4.55-3.369-7.203-8.04-7.203h-2.106v9.932h.651c2.45 0 3.293-.265 4.556-3.41h1.724v9.06h-1.724c-1.339-3.375-2.106-3.83-4.556-3.83h-.65v8.037c0 1.251.037 1.592 3.445 1.706v1.63h-13.593v-1.706z" fill="#FFF"/></g>
</svg>